<?xml version="1.0" encoding="UTF-8" standalone="no"?>
<!-- Generator: Adobe Illustrator 18.0.0, SVG Export Plug-In . SVG Version: 6.00 Build 0)  -->

<svg
   version="1.1"
   id="Badge_1_APACHE_20th_Anniversary"
   x="0px"
   y="0px"
   viewBox="0 0 5000 5000"
   enable-background="new 0 0 5000 5000"
   xml:space="preserve"
   xmlns:xlink="http://www.w3.org/1999/xlink"
   xmlns="http://www.w3.org/2000/svg"
   xmlns:svg="http://www.w3.org/2000/svg"><defs
   id="defs1141" />
<g
   id="g1136">
	<g
   id="g668">
		<g
   id="g611">
			<linearGradient
   id="SVGID_1_"
   gradientUnits="userSpaceOnUse"
   x1="4063.019"
   y1="4397.3823"
   x2="2828.0166"
   y2="42.7982">
				<stop
   offset="0"
   style="stop-color:#9E2064"
   id="stop592" />
				<stop
   offset="6.161143e-002"
   style="stop-color:#9E2064"
   id="stop594" />
				<stop
   offset="0.5766"
   style="stop-color:#C92037"
   id="stop596" />
				<stop
   offset="0.8649"
   style="stop-color:#CD2335"
   id="stop598" />
				<stop
   offset="0.8852"
   style="stop-color:#CF2E35"
   id="stop600" />
				<stop
   offset="0.9177"
   style="stop-color:#D64732"
   id="stop602" />
				<stop
   offset="0.9582"
   style="stop-color:#E2692B"
   id="stop604" />
				<stop
   offset="0.9749"
   style="stop-color:#E97826"
   id="stop606" />
			</linearGradient>
			<path
   fill="url(#SVGID_1_)"
   d="M4250,2500c0,696.8-407.2,1298.4-996.6,1579.9l-185.1-388.2C3512.9,3479.3,3820,3025.6,3820,2500     c0-729-591-1320-1320-1320V750C3466.5,750,4250,1533.5,4250,2500z"
   id="path609" />
		</g>
		<g
   id="g636">
			<linearGradient
   id="SVGID_2_"
   gradientUnits="userSpaceOnUse"
   x1="1146.2969"
   y1="3536.0012"
   x2="4274.8486"
   y2="4322.0303"
   xlink:href="#SVGID_3_">
				<stop
   offset="0"
   style="stop-color:#282662"
   id="stop613" />
				<stop
   offset="7.983771e-002"
   style="stop-color:#422A72"
   id="stop615" />
				<stop
   offset="0.1795"
   style="stop-color:#5C2D84"
   id="stop617" />
				<stop
   offset="0.2357"
   style="stop-color:#662E8D"
   id="stop619" />
				<stop
   offset="0.3292"
   style="stop-color:#6C2D89"
   id="stop621" />
				<stop
   offset="0.4784"
   style="stop-color:#7B2A7F"
   id="stop623" />
				<stop
   offset="0.6635"
   style="stop-color:#8F2570"
   id="stop625" />
				<stop
   offset="0.7882"
   style="stop-color:#9F2064"
   id="stop627" />
				<stop
   offset="0.9487"
   style="stop-color:#CD2032"
   id="stop629" />
				<stop
   offset="1"
   style="stop-color:#CD2032"
   id="stop631" />
			</linearGradient>
			<path
   fill="url(#SVGID_2_)"
   d="M3253.4,4079.9C3025.2,4189,2769.8,4250,2500,4250c-647.7,0-1213.2-351.9-1515.7-874.9l372.4-215     C1584.9,3554.6,2011.4,3820,2500,3820c203.5,0,396.2-46.1,568.3-128.3L3253.4,4079.9z"
   id="path634"
   style="fill-opacity:1.0" />
		</g>
		<g
   id="g649">
			<linearGradient
   id="SVGID_3_"
   gradientUnits="userSpaceOnUse"
   x1="962.1253"
   y1="1741.288"
   x2="1125.5571"
   y2="3756.947">
				<stop
   offset="0"
   style="stop-color:#F69923"
   id="stop638" />
				<stop
   offset="0.2704"
   style="stop-color:#F79A23"
   id="stop640" />
				<stop
   offset="0.7742"
   style="stop-color:#E97826"
   id="stop642" />
				<stop
   offset="1"
   style="stop-color:#E97826"
   id="stop644" />
			</linearGradient>
			<path
   fill="url(#SVGID_3_)"
   d="M1356.6,3160.1l-372.4,215C835.2,3117.7,750,2818.8,750,2500c0-43.9,1.6-87.5,4.8-130.6     l428.8,32.1c-2.4,32.5-3.6,65.4-3.6,98.5C1180,2740.5,1244.3,2965.9,1356.6,3160.1z"
   id="path647" />
		</g>
		<g
   id="g666">
			<linearGradient
   id="SVGID_4_"
   gradientUnits="userSpaceOnUse"
   x1="4146.1826"
   y1="289.9458"
   x2="309.4267"
   y2="2251.1274">
				<stop
   offset="0"
   style="stop-color:#9E2064"
   id="stop651" />
				<stop
   offset="9.719036e-002"
   style="stop-color:#9E2064"
   id="stop653" />
				<stop
   offset="0.182"
   style="stop-color:#C92037"
   id="stop655" />
				<stop
   offset="0.2409"
   style="stop-color:#CD2335"
   id="stop657" />
				<stop
   offset="0.7561"
   style="stop-color:#E0632C"
   id="stop659" />
				<stop
   offset="1"
   style="stop-color:#E97826"
   id="stop661" />
			</linearGradient>
			<path
   fill="url(#SVGID_4_)"
   d="M2500,750v430c-695.9,0-1266,538.5-1316.4,1221.5l-428.8-32.1C821.7,1463.9,1577.4,750,2500,750z"
   id="path664" />
		</g>
	</g>
	
	
	
	
	
	
</g>
</svg>
